HIERARCHY
ROOT Hips
{
	OFFSET 0.00000 0.00000 0.00000
	CHANNELS 6 Xposition Yposition Zposition Zrotation Yrotation Xrotation 
	JOINT LHipJoint
	{
		OFFSET 0 0 0
		CHANNELS 3 Zrotation Yrotation Xrotation
		JOINT LeftHip
		{
			OFFSET 1.56857 -1.73443 1.15205
			CHANNELS 3 Zrotation Yrotation Xrotation
			JOINT LeftKnee
			{
				OFFSET 2.39362 -6.57643 0.00000
				CHANNELS 3 Zrotation Yrotation Xrotation
				JOINT LeftAnkle
				{
					OFFSET 2.50952 -6.89485 0.00000
					CHANNELS 3 Zrotation Yrotation Xrotation
					JOINT LeftToe
					{
						OFFSET 0.17171 -0.47178 1.88682
						CHANNELS 3 Zrotation Yrotation Xrotation
						End Site
						{
							OFFSET 0.00000 -0.00000 0.98146
						}
					}
				}
			}
		}
	}
	JOINT RHipJoint
	{
		OFFSET 0 0 0
		CHANNELS 3 Zrotation Yrotation Xrotation
		JOINT RightHip
		{
			OFFSET -1.28153 -1.73443 1.15205
			CHANNELS 3 Zrotation Yrotation Xrotation
			JOINT RightKnee
			{
				OFFSET -2.26861 -6.23296 0.00000
				CHANNELS 3 Zrotation Yrotation Xrotation
				JOINT RightAnkle
				{
					OFFSET -2.54143 -6.98254 0.00000
					CHANNELS 3 Zrotation Yrotation Xrotation
					JOINT RightToe
					{
						OFFSET -0.23309 -0.64041 1.93119
						CHANNELS 3 Zrotation Yrotation Xrotation
						End Site
						{
							OFFSET -0.00000 -0.00000 1.02013
						}
					}
				}
			}
		}
	}
	JOINT lowerback
	{
		OFFSET 0 0 0
		CHANNELS 3 Zrotation Yrotation Xrotation
		JOINT Chest
		{
			OFFSET -0.07096 2.10460 -0.27878
			CHANNELS 3 Zrotation Yrotation Xrotation
			JOINT Chest2
			{
				OFFSET -0.00826 2.13662 -0.08279
				CHANNELS 3 Zrotation Yrotation Xrotation
				JOINT lowerneck
				{
					OFFSET 0 0 0
					CHANNELS 3 Zrotation Yrotation Xrotation
					JOINT Neck
					{
						OFFSET 0.03239 1.77799 0.24435
						CHANNELS 3 Zrotation Yrotation Xrotation
						JOINT Head
						{
							OFFSET 0.01026 1.74194 -0.49664
							CHANNELS 3 Zrotation Yrotation Xrotation
							End Site
							{
								OFFSET 0.00170 1.83057 -0.19653
							}
						}
					}
				}
				JOINT LeftCollar
				{
					OFFSET 0 0 0
					CHANNELS 3 Zrotation Yrotation Xrotation
					JOINT LeftShoulder
					{
						OFFSET 3.19178 1.35907 -0.31412
CHANNELS 3 Zrotation Xrotation Yrotation
						JOINT LeftElbow
						{
OFFSET 0 -4.852470 -0.000000
CHANNELS 3 Zrotation Xrotation Yrotation
							JOINT LeftWrist
							{
OFFSET 0 -3.555840 0.000000
CHANNELS 3 Zrotation Xrotation Yrotation
								JOINT lhand
								{
									OFFSET 0 0 0
CHANNELS 3 Zrotation Xrotation Yrotation
									JOINT LFingers
									{
OFFSET 0 -0.693200 0.000000
CHANNELS 3 Zrotation Xrotation Yrotation
										End Site
										{
OFFSET 0 -0.558880 0.000000
										}
									}
								}
								JOINT LThumb
								{
OFFSET 0 0.000000 0.000000
CHANNELS 3 Zrotation Xrotation Yrotation
									End Site
									{
OFFSET 0 -0.567410 0.567410
									}
								}
							}
						}
					}
				}
				JOINT RightCollar
				{
					OFFSET 0 0 0
					CHANNELS 3 Zrotation Yrotation Xrotation
					JOINT RightShoulder
					{
						OFFSET -3.28999 1.24191 -0.26899
CHANNELS 3 Zrotation Xrotation Yrotation
						JOINT RightElbow
						{
OFFSET 0 -4.644620 0.000000
CHANNELS 3 Zrotation Xrotation Yrotation
							JOINT RightWrist
							{
OFFSET 0 -3.407030 0.000000
CHANNELS 3 Zrotation Xrotation Yrotation
								JOINT rhand
								{
									OFFSET 0 0 0
CHANNELS 3 Zrotation Xrotation Yrotation
									JOINT RFingers
									{
OFFSET 0 -0.619580 0.000000
CHANNELS 3 Zrotation Xrotation Yrotation
										End Site
										{
OFFSET 0 -0.499520 0.000000
										}
									}
								}
								JOINT RThumb
								{
OFFSET 0 0.000000 0.000000
CHANNELS 3 Zrotation Xrotation Yrotation
									End Site
									{
OFFSET 0 -0.507150 0.507150
									}
								}
							}
						}
					}
				}
			}
		}
	}
}
MOTION
Frames: 8
Frame Time: 0.008333333333333333
-34.696300 17.125300 7.642200 -11.490300 74.168400 -5.072000 0.000000 0.000000 0.000000 11.921800 8.248000 -0.320200 6.576300 14.964500 47.253200 -0.124600 10.737500 5.397400 0.204800 2.913600 8.038400 0.000000 0.000000 0.000000 6.219300 -2.693200 -35.875200 -5.406600 -13.827500 42.550900 -0.209400 -1.609200 -9.388000 -0.250300 -3.219200 8.889500 -14.721000 -3.921000 23.054000 -9.458600 -7.609800 9.238600 -0.333300 -3.488400 -1.813600 5.900800 12.671400 -19.451100 -1.258800 15.913600 13.805600 0.693400 7.741700 7.960700 -0.000000 0.000000 0.000000 18.150700 -32.687000 -66.667700 72.892300 -58.864700 45.240800 32.963200 -12.503100 33.220900 0.000000 0.000000 0.000000 -7.125000 0.000000 0.000000 0.352500 -7.993600 0.398100 -0.000000 0.000000 0.000000 -63.105000 12.549800 -40.907600 -27.164500 -38.335600 -9.601000 -34.393300 -21.962700 31.223800 0.000000 0.000000 0.000000 7.125000 0.000000 -0.000000 -3.934200 66.241600 2.017100
-34.629450 17.046211 7.804871 -10.102096 73.730195 -4.487623 0.000000 0.000000 0.000000 11.208139 8.428100 0.445284 7.526222 15.745012 50.812831 0.127695 6.586520 7.625065 0.380485 -2.609162 -7.239981 0.000000 0.000000 0.000000 6.870062 -3.642037 -35.154025 -5.271273 -13.682490 41.980931 -0.176866 -1.847397 -8.840418 -0.265870 -3.316493 9.161238 -15.367114 -3.688535 23.221164 -9.691065 -7.414982 9.440622 -0.298364 -3.402107 -1.611423 5.796381 12.773883 -19.402299 -1.208682 16.074877 13.745489 0.739335 7.819317 7.923595 0.000000 0.000000 0.000000 18.504393 -32.066836 -64.649571 74.799967 -59.104214 46.876342 34.461169 -15.005602 33.840135 0.000000 0.000000 0.000000 -7.125000 0.000000 0.000000 1.013100 -9.135319 1.164513 0.000000 0.000000 0.000000 -65.978237 10.719053 -42.026467 -27.507659 -38.658463 -9.814874 -34.247206 -21.694370 30.657317 0.000000 0.000000 0.000000 7.125000 0.000000 0.000000 -3.947756 65.582627 1.964038
-34.561227 16.960311 7.966993 -8.689505 73.286717 -3.880618 0.000000 0.000000 0.000000 10.460643 8.681250 1.177428 8.520303 16.469390 54.385370 0.203407 2.788598 8.314613 0.748297 -5.409572 -15.108283 0.000000 0.000000 0.000000 7.427726 -4.542431 -34.288122 -5.107935 -13.503262 41.284745 -0.149714 -2.078948 -8.378134 -0.401890 -4.021365 11.143172 -15.945561 -3.270315 23.866724 -9.813735 -7.157000 9.309689 -0.140068 -3.242050 -2.033028 5.552068 12.682481 -19.414793 -1.063873 16.003931 14.089790 0.822180 7.782142 8.007216 0.000000 0.000000 0.000000 18.318505 -31.023915 -63.211778 76.598005 -59.305061 48.420983 35.927446 -17.252318 34.351552 0.000000 0.000000 0.000000 -7.125000 0.000000 0.000000 1.668866 -10.176196 1.942022 0.000000 0.000000 0.000000 -69.035032 9.638744 -42.583453 -27.906401 -39.028727 -10.065163 -33.979288 -22.113425 29.842025 0.000000 0.000000 0.000000 7.125000 0.000000 0.000000 -3.875849 64.615910 1.842430
-34.492084 16.867989 8.130055 -7.814771 72.817660 -3.796482 0.000000 0.000000 0.000000 9.921248 8.988537 1.919373 9.545751 17.130574 57.936842 0.206660 -0.249613 8.791464 1.020896 -6.427641 -18.030370 0.000000 0.000000 0.000000 8.124996 -5.351662 -33.257802 -4.929118 -13.302415 40.513320 -0.136528 -2.220942 -8.167166 -0.524536 -4.640338 12.885716 -16.328961 -2.853472 24.445406 -9.950135 -6.851822 9.185221 -0.115144 -3.058105 -2.451461 5.459962 12.580377 -19.360395 -0.960077 15.889970 14.431297 0.862035 7.729732 8.093995 0.000000 0.000000 0.000000 18.250335 -29.997895 -61.782977 78.182222 -59.462965 49.784136 37.360217 -19.361171 34.681438 0.000000 0.000000 0.000000 -7.125000 0.000000 0.000000 2.342664 -11.035651 2.752259 0.000000 0.000000 0.000000 -71.998735 8.685742 -42.972129 -28.309782 -39.399008 -10.320030 -33.702838 -22.700502 29.049684 0.000000 0.000000 0.000000 7.125000 0.000000 0.000000 -3.777456 63.670990 1.711901
-34.422691 16.769723 8.294957 -7.773672 72.316141 -4.523008 0.000000 0.000000 0.000000 9.722178 9.341603 2.686512 10.592472 17.723948 61.443477 0.205009 -2.410585 9.829440 1.091655 -6.628257 -18.623044 0.000000 0.000000 0.000000 9.090629 -6.041166 -32.057840 -4.752155 -13.098900 39.740276 -0.158202 -2.236041 -8.606271 -0.536999 -4.687796 13.021500 -16.445684 -2.545801 24.678621 -10.170701 -6.520418 9.244431 -0.364376 -2.882074 -2.541910 5.683311 12.578160 -19.151428 -0.964284 15.849765 14.535816 0.817227 7.724335 8.112829 0.000000 0.000000 0.000000 18.611960 -29.198087 -60.029596 79.557003 -59.582497 50.968876 38.674380 -21.274906 34.796848 0.000000 0.000000 0.000000 -7.125000 0.000000 0.000000 3.003049 -11.643486 3.551863 0.000000 0.000000 0.000000 -74.718521 7.472600 -43.404602 -28.682233 -39.736492 -10.557105 -33.547083 -23.026609 28.502849 0.000000 0.000000 0.000000 7.125000 0.000000 0.000000 -3.749968 63.028011 1.642526
-34.354989 16.665303 8.461347 -8.220941 71.815501 -5.730260 0.000000 0.000000 0.000000 9.738523 9.778104 3.402265 11.658665 18.235510 64.894196 0.169686 -4.423756 10.721574 1.439694 -7.573221 -21.430979 0.000000 0.000000 0.000000 10.199736 -6.589832 -30.696825 -4.625968 -12.949475 39.180146 -0.306852 -2.209627 -11.441164 -0.393074 -4.014570 11.119100 -16.329956 -2.246176 25.054701 -10.407426 -6.212272 9.197489 -0.737745 -2.699418 -2.856562 6.069539 12.603800 -18.760785 -0.946855 15.816456 14.625595 0.746659 7.737194 8.108336 0.000000 0.000000 0.000000 18.684000 -28.132359 -58.237271 81.107104 -59.697297 52.306420 39.370225 -22.163633 34.751610 0.000000 0.000000 0.000000 -7.125000 0.000000 0.000000 3.380136 -11.862008 4.009278 0.000000 0.000000 0.000000 -77.372927 6.199350 -43.543027 -29.015941 -40.034490 -10.771056 -33.823779 -22.650761 28.446611 0.000000 0.000000 0.000000 7.125000 0.000000 0.000000 -4.127210 63.043039 1.809458
-34.294024 16.561726 8.628189 -8.491827 71.334683 -6.911149 0.000000 0.000000 0.000000 9.723193 10.181181 4.217900 12.762945 18.680548 68.372898 0.147447 -6.073348 11.928838 1.045933 -6.421755 -18.042251 0.000000 0.000000 0.000000 11.156040 -6.875578 -29.010123 -4.542792 -12.849408 38.807732 -0.540422 -2.034295 -14.624415 -0.130158 -1.372066 3.798044 -16.282175 -1.862863 25.663451 -10.616298 -5.864096 9.140507 -1.055084 -2.489750 -3.283339 6.435557 12.572244 -18.296558 -0.960906 15.722000 14.650275 0.653095 7.719285 8.068606 0.000000 0.000000 0.000000 18.948745 -27.085869 -56.551823 82.723016 -59.794995 53.702455 39.818048 -22.925271 34.443516 0.000000 0.000000 0.000000 -7.125000 0.000000 0.000000 3.701776 -11.705355 4.383718 0.000000 0.000000 0.000000 -80.102017 4.838978 -43.625293 -29.202092 -40.199441 -10.890955 -34.212211 -21.908807 28.558852 0.000000 0.000000 0.000000 7.125000 0.000000 0.000000 -4.603558 63.275126 2.044986
-34.237968 16.443742 8.789968 -8.979983 70.958144 -7.989644 0.000000 0.000000 0.000000 9.710148 10.485424 4.574808 13.879586 19.062759 71.824263 0.064712 -8.118907 12.942293 0.808867 -5.739403 -16.030226 0.000000 0.000000 0.000000 12.036248 -6.874438 -27.684489 -4.525061 -12.828067 38.728255 -0.762580 -1.068260 -16.904617 -0.008659 -0.387931 1.066244 -16.020891 -1.577492 25.997535 -10.792556 -5.549640 9.023651 -1.453524 -2.304400 -3.661543 6.708411 12.480659 -17.800431 -0.925920 15.563699 14.635806 0.574837 7.672498 7.996166 0.000000 0.000000 0.000000 19.183741 -26.017805 -54.942091 84.148701 -59.867719 54.934959 40.152414 -23.573192 34.044022 0.000000 0.000000 0.000000 -7.125000 0.000000 0.000000 3.989958 -11.405903 4.709973 0.000000 0.000000 0.000000 -82.922524 3.451488 -43.653983 -29.295986 -40.282282 -10.951587 -34.494467 -21.052187 28.803478 0.000000 0.000000 0.000000 7.125000 0.000000 0.000000 -4.903971 63.623772 2.218008
